
        <svg xmlns="http://www.w3.org/2000/svg" xmlns:xlink="http://www.w3.org/1999/xlink" version="1.1" width="3174.6452949912405" 
        height="652.5745518583612" viewBox="0 0 3174.6452949912405 652.5745518583612">
			
			<g transform="scale(8.732264749562031) translate(10, 10)">
				<defs id="SvgjsDefs65225"><linearGradient id="SvgjsLinearGradient65234"><stop id="SvgjsStop65235" stop-color="#2d388a" offset="0"></stop><stop id="SvgjsStop65236" stop-color="#00aeef" offset="1"></stop></linearGradient><linearGradient id="SvgjsLinearGradient65237"><stop id="SvgjsStop65238" stop-color="#2d388a" offset="0"></stop><stop id="SvgjsStop65239" stop-color="#00aeef" offset="1"></stop></linearGradient></defs><g id="SvgjsG65226" featureKey="symbolFeature-0" transform="matrix(1.0773901901346312,0,0,1.0773901901346312,0,-0.010784423289921847)" fill="url(#SvgjsLinearGradient65234)">    <title xmlns="http://www.w3.org/2000/svg">Asset 43LETTERS6</title>    <g xmlns="http://www.w3.org/2000/svg" id="Page-1" stroke-width="1" fill-rule="evenodd">        <g id="Artboard" transform="translate(-1484.000000, -379.000000)" fill-rule="nonzero">            <g id="Asset-43LETTERS6" transform="translate(1484.000000, 379.010000)">                <path d="M34.34,17.91 L33.01,16.57 L16.55,0 L0,0 L23.01,23.16 C23.97,24.12 23.97,25.68 23.01,26.65 L0,49.8 L16.55,49.8 L33.01,33.23 L34.34,31.89 C38.18,28.02 38.18,21.78 34.34,17.91 Z" id="Path" stroke="none" fill="url(#SvgjsLinearGradient65234)"></path>                <path d="M51.83,14.3 L66.02,0 L49.47,0 L35.28,14.3 C39.84,18.89 47.26,18.89 51.82,14.3 L51.83,14.3 Z" id="Path" stroke="none" fill="url(#SvgjsLinearGradient65234)"></path>                <path d="M35.28,35.5 L49.47,49.8 L66.02,49.8 L51.82,35.5 C47.26,30.91 39.84,30.91 35.28,35.5 L35.28,35.5 Z" id="Path" stroke="none" fill="url(#SvgjsLinearGradient65234)"></path>            </g>        </g>    </g></g><g id="SvgjsG65227" featureKey="sloganFeature-0" transform="matrix(0.27183162801345345,0,0,0.27183162801345345,90.40197040540846,42.73870193040812)" fill="#ffffff"><path d="M4.34 20 l-2.14 0 l0 -14.92 l2.14 0 l0 14.92 z M21.012 7.18 l-1.74 -2.1 l2.82 0 l9.58 11.4 l0 -11.4 l2.2 0 l0 14.92 l-2.16 0 l-8.56 -10.26 l0 10.26 l-2.14 0 l0 -12.82 z M61.204 7.28 l-5.26 0 l0 12.72 l-2.12 0 l0 -12.72 l-5.32 0 l0 -2.2 l12.7 0 l0 2.2 z M78.016 14.02 l0 3.8 l9.2 0 l0 2.18 l-11.38 0 l0 -14.92 l10.5 0 l0 2.2 l-8.32 0 l0 4.52 q0.62 -0.36 1.38 -0.48 q0.56 -0.1 1.44 -0.1 l3.26 0 l0 2.22 l-3.26 0 q-0.82 0 -1.44 0.1 q-0.76 0.14 -1.38 0.48 z M113.008 20 l-10.46 0 l0 -14.92 l2.18 0 l0 12.74 l8.28 0 l0 2.18 z M137.9 20 l-10.46 0 l0 -14.92 l2.18 0 l0 12.74 l8.28 0 l0 2.18 z M154.472 20 l-2.14 0 l0 -14.92 l2.14 0 l0 14.92 z M183.484 7 l-1.4 1.64 q-0.82 -0.84 -1.96 -1.32 t-2.4 -0.48 q-1.64 0 -2.99 0.74 t-2.11 2.02 q-0.78 1.34 -0.78 2.98 q0 1.56 0.84 2.88 q0.8 1.24 2.15 1.97 t2.91 0.73 q1.1 0 2.11 -0.38 t1.81 -1.06 l0 -2.72 l-1.92 0 l-0.94 -2.16 l5.02 0 l0 5.8 q-1.14 1.28 -2.73 1.99 t-3.37 0.71 q-2.22 0 -4.08 -1.08 q-1.82 -1.04 -2.86 -2.86 q-1.08 -1.86 -1.08 -4.08 q0 -2.14 1.14 -3.94 q1.08 -1.72 2.93 -2.73 t3.97 -1.01 q1.66 0 3.16 0.64 q1.46 0.6 2.58 1.72 z M201.536 14.02 l0 3.8 l9.2 0 l0 2.18 l-11.38 0 l0 -14.92 l10.5 0 l0 2.2 l-8.32 0 l0 4.52 q0.62 -0.36 1.38 -0.48 q0.56 -0.1 1.44 -0.1 l3.26 0 l0 2.22 l-3.26 0 q-0.82 0 -1.44 0.1 q-0.76 0.14 -1.38 0.48 z M226.508 7.18 l-1.74 -2.1 l2.82 0 l9.58 11.4 l0 -11.4 l2.2 0 l0 14.92 l-2.16 0 l-8.56 -10.26 l0 10.26 l-2.14 0 l0 -12.82 z M268.38 7 l-1.4 1.64 q-0.82 -0.84 -1.96 -1.32 t-2.4 -0.48 q-1.64 0 -2.99 0.74 t-2.11 2.02 q-0.78 1.34 -0.78 2.98 q0 1.56 0.84 2.88 q0.8 1.24 2.15 1.97 t2.91 0.73 q1.44 0 2.68 -0.62 t2.06 -1.72 l1.34 1.82 q-1.14 1.28 -2.73 1.99 t-3.37 0.71 q-2.22 0 -4.08 -1.08 q-1.82 -1.04 -2.86 -2.86 q-1.08 -1.86 -1.08 -4.08 q0 -2.14 1.14 -3.94 q1.08 -1.72 2.93 -2.73 t3.97 -1.01 q1.66 0 3.16 0.64 q1.46 0.6 2.58 1.72 z M285.932 14.02 l0 3.8 l9.2 0 l0 2.18 l-11.38 0 l0 -14.92 l10.5 0 l0 2.2 l-8.32 0 l0 4.52 q0.62 -0.36 1.38 -0.48 q0.56 -0.1 1.44 -0.1 l3.26 0 l0 2.22 l-3.26 0 q-0.82 0 -1.44 0.1 q-0.76 0.14 -1.38 0.48 z M309.264 18.76 q0 -0.5 0.34 -0.85 t0.84 -0.35 t0.85 0.35 t0.35 0.85 t-0.35 0.84 t-0.85 0.34 t-0.84 -0.34 t-0.34 -0.84 z M348.588 6.66 l-0.82 -1.84 l2.4 0 l7.18 15.18 l-2.44 0 l-0.98 -2.18 l-4.54 0 q-1.28 0 -2.3 0.24 q-0.9 0.22 -1.5 0.58 q-0.54 0.32 -0.72 0.66 l-0.38 0.7 l-2.36 0 z M350.188 15.62 l2.76 0 l-3.26 -6.3 l-3.3 7.14 q0.44 -0.38 1.34 -0.6 q1.02 -0.24 2.46 -0.24 z M378.48 20.34 q-2.1 0 -3.61 -0.73 t-2.3 -2.11 t-0.79 -3.3 l0 -9.12 l2.16 0 l0 9.12 q0 1.92 1.18 2.94 t3.36 1.02 t3.36 -1.02 t1.18 -2.94 l0 -9.12 l2.16 0 l0 9.12 q0 1.92 -0.79 3.3 t-2.3 2.11 t-3.61 0.73 z M412.312 7.28 l-5.26 0 l0 12.72 l-2.12 0 l0 -12.72 l-5.32 0 l0 -2.2 l12.7 0 l0 2.2 z M439.844 12.44 q0 -1.6 -0.82 -2.9 q-0.78 -1.26 -2.13 -1.98 t-2.93 -0.72 q-1.64 0 -2.99 0.74 t-2.11 2.02 q-0.78 1.34 -0.78 2.98 q0 1.56 0.84 2.88 q0.8 1.24 2.15 1.97 t2.92 0.73 t2.92 -0.76 t2.13 -2.04 q0.8 -1.34 0.8 -2.92 z M442.004 12.56 q0 2.16 -1.12 3.98 q-1.08 1.74 -2.93 2.77 t-3.99 1.03 q-2.22 0 -4.08 -1.08 q-1.82 -1.04 -2.86 -2.86 q-1.08 -1.86 -1.08 -4.08 q0 -2.14 1.14 -3.94 q1.08 -1.72 2.93 -2.73 t3.97 -1.01 q2.18 0 4.04 1.06 q1.82 1.04 2.88 2.82 q1.1 1.86 1.1 4.04 z M469.976 9.74 l-5.1 6.1 l-5.06 -6.1 l0 10.26 l-2.14 0 l0 -12.82 l-1.74 -2.1 l2.82 0 l6.1 7.32 l6.18 -7.32 l2.82 0 l-1.74 2.1 l0 12.82 l-2.14 0 l0 -10.26 z M493.448 6.66 l-0.82 -1.84 l2.4 0 l7.18 15.18 l-2.44 0 l-0.98 -2.18 l-4.54 0 q-1.28 0 -2.3 0.24 q-0.9 0.22 -1.5 0.58 q-0.54 0.32 -0.72 0.66 l-0.38 0.7 l-2.36 0 z M495.048 15.62 l2.76 0 l-3.26 -6.3 l-3.3 7.14 q0.44 -0.38 1.34 -0.6 q1.02 -0.24 2.46 -0.24 z M527.94 7.28 l-5.26 0 l0 12.72 l-2.12 0 l0 -12.72 l-5.32 0 l0 -2.2 l12.7 0 l0 2.2 z M544.752 14.02 l0 3.8 l9.2 0 l0 2.18 l-11.38 0 l0 -14.92 l10.5 0 l0 2.2 l-8.32 0 l0 4.52 q0.62 -0.36 1.38 -0.48 q0.56 -0.1 1.44 -0.1 l3.26 0 l0 2.22 l-3.26 0 q-0.82 0 -1.44 0.1 q-0.76 0.14 -1.38 0.48 z M572.264 7.28 l0 10.54 l3.38 0 q1.4 0 2.52 -0.72 q1.06 -0.7 1.66 -1.88 t0.6 -2.58 q0 -1.46 -0.57 -2.68 t-1.63 -1.94 q-1.14 -0.74 -2.62 -0.74 l-3.34 0 z M568.944 7.28 l-0.96 -2.2 l7.6 0 q1.98 0 3.62 1.02 q1.58 0.98 2.5 2.68 t0.92 3.7 q0 1.5 -0.59 2.97 t-1.63 2.57 q-1 1.08 -2.14 1.54 q-1.1 0.44 -2.62 0.44 l-5.52 0 l0 -12.72 l-1.18 0 z M596.656 18.76 q0 -0.5 0.34 -0.85 t0.84 -0.35 t0.85 0.35 t0.35 0.85 t-0.35 0.84 t-0.85 0.34 t-0.84 -0.34 t-0.34 -0.84 z"></path></g><g id="SvgjsG65228" featureKey="nameLeftFeature-0" transform="matrix(1.9043990167120795,0,0,1.9043990167120795,89.93349897395089,-2.1508290991747305)" fill="#ffffff"><path d="M9.46 5.22 c-2.42666 0 -4.50664 0.66 -6.23998 1.98 c-1.77334 1.34666 -2.66 2.98666 -2.66 4.92 s0.88666 3.57334 2.66 4.92 c1.72 1.30666 3.8 1.96 6.24 1.96 s4.51334 -0.65334 6.22 -1.96 c1.77334 -1.36 2.66 -3 2.66 -4.92 s-0.88666 -3.56 -2.66 -4.92 c-1.73334 -1.32 -3.80668 -1.98 -6.22002 -1.98 z M17.24002 12.12 c0 1.58666 -0.76 2.94332 -2.28 4.06998 s-3.35334 1.69 -5.5 1.69 s-3.98 -0.56334 -5.5 -1.69 s-2.28 -2.48332 -2.28 -4.06998 c0 -1.6 0.76 -2.96334 2.28 -4.09 s3.35334 -1.69 5.5 -1.69 s3.98 0.56334 5.5 1.69 s2.28 2.49 2.28 4.09 z M32.43 17.1 l-8.56 -12.82 l0 13.84 c0 0.36 0.18666 0.54 0.56 0.54 c0.36 0 0.54 -0.18 0.54 -0.54 l0 -10.18 l7.46 11.18 l7.44 -11.18 l0 10.18 c0 0.36 0.18666 0.54 0.56 0.54 c0.36 0 0.54 -0.18 0.54 -0.54 l0 -13.84 z M63.26 5.56 c-0.37334 0 -0.56 0.18666 -0.56 0.56 l0 10.88 l-16 -12 l0 13.12 c0 0.36 0.18666 0.54 0.56 0.54 s0.56 -0.18 0.56 -0.54 l0 -10.9 l16 12 l0 -13.1 c0 -0.37334 -0.18666 -0.56 -0.56 -0.56 z M69.99 6.12 l0 12 c0 0.36 0.18 0.54 0.54 0.54 c0.37334 0 0.56 -0.18 0.56 -0.54 l0 0 l0 -12 c0 -0.37334 -0.18666 -0.56 -0.56 -0.56 c-0.36 0 -0.54 0.18666 -0.54 0.56 z"></path></g><g id="SvgjsG65229" featureKey="nameRightFeature-0" transform="matrix(1.9619232284881911,0,0,1.9619232284881911,230.41718910818986,-5.16993400594351)" fill="url(#SvgjsLinearGradient65237)"><path d="M9.277344 20 l-3.671875 -6.210937 l-0.849609 0 l0 6.210938 l-2.929687 0 l0 -14.111328 l5.117188 0 c3.193359 0 4.541016 1.884766 4.541016 4.21875 c0 1.894531 -1.074219 3.125 -2.988281 3.535156 l4.248047 6.357422 l-3.466797 0 z M4.755859 8.320313 l0 3.369141 l1.728516 0 c1.5625 0 2.197266 -0.664062 2.197266 -1.679687 c0 -1.005859 -0.634766 -1.689453 -2.197266 -1.689453 l-1.728516 0 z M23.076172 8.466797 l-5.234375 0 l0 3.203125 l4.638672 0 l0 2.548828 l-4.638672 0 l0 3.193359 l5.234375 0 l0 2.587891 l-8.183594 0 l0 -14.111328 l8.183594 0 l0 2.578125 z M24.550781 20 l5.498047 -7.363281 l-5.341797 -6.748047 l3.564453 0 l3.515625 4.628906 l3.515625 -4.628906 l3.564453 0 l-5.341797 6.748047 l5.498047 7.363281 l-3.730469 0 l-3.505859 -4.990234 l-3.505859 4.990234 l-3.730469 0 z M41.132813 20 l0 -14.111328 l2.929688 0 l0 14.111328 l-2.929687 0 z M52.392578 20.195313 c-3.027344 0 -5.390625 -1.455078 -5.820312 -4.101562 l3.027344 -0.693359 c0.195313 1.582031 1.357422 2.402344 2.910156 2.402344 c1.191406 0 2.138672 -0.527344 2.128906 -1.71875 c-0.009766 -1.328125 -1.572266 -1.748047 -3.291016 -2.275391 c-2.070312 -0.644531 -4.287109 -1.40625 -4.287109 -4.003906 c0 -2.626953 2.148438 -4.111328 4.980469 -4.111328 c2.480469 0 4.980469 1.005859 5.546875 3.710938 l-2.832031 0.703125 c-0.263672 -1.40625 -1.210937 -2.021484 -2.539062 -2.021484 c-1.181641 0 -2.1875 0.488281 -2.1875 1.650391 c0 1.083984 1.386719 1.445313 2.988281 1.923828 c2.128906 0.644531 4.648438 1.464844 4.648438 4.277344 c0 2.998047 -2.509766 4.257813 -5.273437 4.257813 z"></path></g>
			</g>
		</svg>
	